<svg width="3420" height="2268" viewBox="0 0 3420 2268" fill="none" xmlns="http://www.w3.org/2000/svg">
<path d="M1831.67 422.491L1911.03 328.437V1055.97L1831.67 1084.13V422.491Z" fill="#211D1E"/>
<path d="M1701.08 570.997L1780.44 476.942V1089.49L1701.08 1097.45V570.997Z" fill="#211D1E"/>
<path d="M1570.5 720.917L1649.86 626.863V1088.05L1570.5 1057.77V720.917Z" fill="#211D1E"/>
<path d="M1831.91 373.111C1740.32 351.067 1643.79 364.24 1561.45 410.018C1479.12 455.797 1416.99 530.84 1387.38 620.272C1357.77 709.704 1362.84 806.996 1401.59 892.863C1440.34 978.73 1509.94 1046.9 1596.59 1083.87C1683.24 1120.84 1780.62 1123.9 1869.42 1092.45C1958.22 1060.99 2031.96 997.327 2076.03 914.063C2120.09 830.799 2131.27 734.018 2107.34 642.903C2083.4 551.788 2026.11 472.991 1946.81 422.132L1928.49 450.693C2000.63 496.959 2052.75 568.639 2074.52 651.523C2096.29 734.408 2086.12 822.448 2046.04 898.191C2005.95 973.934 1938.87 1031.85 1858.09 1060.46C1777.31 1089.07 1688.73 1086.29 1609.91 1052.66C1531.08 1019.03 1467.77 957.017 1432.52 878.906C1397.27 800.795 1392.66 712.29 1419.59 630.937C1446.52 549.583 1503.04 481.318 1577.94 439.674C1652.84 398.03 1740.65 386.047 1823.97 406.1L1831.91 373.111Z" fill="#168024"/>
<path d="M1831.91 373.111L1823.97 406.1L1849.8 377.082L1831.91 373.111Z" fill="#168024"/>
<path d="M1928.49 450.693L1946.81 422.132L1928.49 411.733V450.693Z" fill="#168024"/>
<g clip-path="url(#clip0_4_204)">
<path d="M421.57 1356.9C414.914 1356.9 412.111 1359.71 412.111 1366.36V1592.66C412.111 1599.32 414.914 1602.12 421.57 1602.12H514.403C582.714 1602.12 619.496 1579.35 619.496 1527.51C620.044 1515.66 616.519 1503.99 609.508 1494.43C602.497 1484.87 592.422 1478 580.962 1474.96C590.443 1470.74 598.446 1463.79 603.94 1454.98C609.433 1446.18 612.167 1435.94 611.79 1425.57C611.79 1376.87 578.16 1356.9 514.052 1356.9H421.57ZM543.829 1431.87C543.829 1445.88 533.67 1451.49 509.849 1451.49H484.276C479.722 1451.49 478.671 1450.09 478.671 1445.88V1418.21C478.671 1414.01 479.722 1412.6 484.276 1412.6H509.849C534.02 1412.6 543.829 1417.86 543.829 1431.87ZM550.835 1525.76C550.835 1540.12 540.676 1546.42 514.403 1546.42H484.276C479.722 1546.42 478.671 1545.02 478.671 1540.82V1511.04C478.671 1506.49 479.722 1505.44 484.276 1505.44H514.403C539.975 1505.44 550.835 1511.39 550.835 1525.76ZM661.884 1356.9C655.228 1356.9 652.426 1359.71 652.426 1366.36V1496.68C652.426 1570.6 696.565 1607.03 763.125 1607.03C832.136 1607.03 878.377 1569.19 878.377 1495.98V1366.36C878.377 1359.71 875.575 1356.9 868.569 1356.9H821.277C814.621 1356.9 811.818 1359.71 811.818 1366.36V1491.07C811.818 1526.46 795.704 1546.07 765.226 1546.07C734.749 1546.07 718.985 1526.46 718.985 1491.07V1366.36C718.985 1359.71 716.183 1356.9 709.176 1356.9H661.884ZM935.128 1356.9C928.472 1356.9 925.67 1359.71 925.67 1366.36V1592.66C925.67 1599.32 928.472 1602.12 935.128 1602.12H982.42C989.427 1602.12 992.229 1599.32 992.229 1592.66V1366.36C992.229 1359.71 989.427 1356.9 982.42 1356.9H935.128ZM1050.73 1356.9C1044.08 1356.9 1041.27 1359.71 1041.27 1366.36V1592.66C1041.27 1599.32 1044.08 1602.12 1050.73 1602.12H1200.31C1206.97 1602.12 1209.77 1599.32 1209.77 1592.66V1550.98C1209.77 1544.32 1206.97 1541.52 1200.31 1541.52H1113.44C1108.88 1541.52 1107.83 1540.12 1107.83 1535.91V1366.36C1107.83 1359.71 1105.03 1356.9 1098.02 1356.9H1050.73ZM1251.81 1356.9C1245.15 1356.9 1242.35 1359.71 1242.35 1366.36V1592.66C1242.35 1599.32 1245.15 1602.12 1251.81 1602.12H1335.19C1424.51 1602.12 1476.36 1553.08 1476.36 1476.71C1476.36 1403.85 1427.32 1356.9 1341.49 1356.9H1251.81ZM1407.7 1478.46C1407.7 1518.75 1382.83 1542.22 1335.19 1542.22H1314.52C1309.96 1542.22 1308.91 1540.82 1308.91 1536.61V1422.41C1308.91 1418.21 1309.96 1416.81 1314.52 1416.81H1336.59C1383.18 1416.81 1407.7 1440.63 1407.7 1478.46ZM1549.23 1356.9C1542.57 1356.9 1539.77 1359.71 1539.77 1366.36V1592.66C1539.77 1599.32 1542.57 1602.12 1549.23 1602.12H1596.52C1603.52 1602.12 1606.33 1599.32 1606.33 1592.66V1366.36C1606.33 1359.71 1603.52 1356.9 1596.52 1356.9H1549.23ZM1665.53 1352C1659.57 1352 1656.77 1356.9 1656.77 1366.36V1592.66C1656.77 1599.32 1659.57 1602.12 1666.23 1602.12H1713.52C1720.53 1602.12 1723.33 1599.32 1723.33 1592.66V1483.37L1848.04 1595.12C1857.5 1603.87 1862.06 1607.03 1867.31 1607.03C1873.27 1607.03 1876.07 1602.12 1876.07 1592.66V1366.36C1876.25 1365.08 1876.14 1363.77 1875.73 1362.54C1875.32 1361.3 1874.62 1360.18 1873.71 1359.27C1872.79 1358.35 1871.67 1357.66 1870.44 1357.25C1869.2 1356.84 1867.89 1356.72 1866.61 1356.9H1818.97C1812.31 1356.9 1809.51 1359.71 1809.51 1366.36V1475.66L1684.8 1363.91C1675.34 1355.5 1670.08 1352 1665.53 1352ZM1934.57 1356.9C1927.91 1356.9 1925.11 1359.71 1925.11 1366.36V1592.66C1925.11 1599.32 1927.91 1602.12 1934.57 1602.12H1981.86C1988.87 1602.12 1991.67 1599.32 1991.67 1592.66V1522.95C1991.67 1518.75 1992.72 1517.35 1997.28 1517.35H2075.4C2082.05 1517.35 2084.85 1514.55 2084.85 1507.89V1469.35C2084.85 1462.7 2082.05 1459.55 2075.4 1459.55H1997.28C1992.72 1459.55 1991.67 1458.5 1991.67 1453.94V1420.31C1991.67 1416.11 1992.72 1414.71 1997.28 1414.71H2086.96C2093.61 1414.71 2096.41 1412.25 2096.41 1405.25V1366.36C2096.6 1365.08 2096.48 1363.77 2096.07 1362.54C2095.66 1361.3 2094.97 1360.18 2094.05 1359.27C2093.13 1358.35 2092.02 1357.66 2090.78 1357.25C2089.55 1356.84 2088.24 1356.72 2086.96 1356.9H1934.57ZM2140.55 1356.9C2133.9 1356.9 2131.1 1359.71 2131.1 1366.36V1592.66C2131.1 1599.32 2133.9 1602.12 2140.55 1602.12H2187.85C2194.85 1602.12 2197.65 1599.32 2197.65 1592.66V1366.36C2197.65 1359.71 2194.85 1356.9 2187.85 1356.9H2140.55ZM2255.46 1352C2249.5 1352 2246.7 1356.9 2246.7 1366.36V1592.66C2246.7 1599.32 2249.5 1602.12 2256.16 1602.12H2303.45C2310.46 1602.12 2313.26 1599.32 2313.26 1592.66V1483.37L2437.97 1595.12C2447.43 1603.87 2451.98 1607.03 2457.24 1607.03C2463.19 1607.03 2465.99 1602.12 2465.99 1592.66V1366.36C2466.18 1365.08 2466.06 1363.77 2465.65 1362.54C2465.24 1361.3 2464.55 1360.18 2463.63 1359.27C2462.71 1358.35 2461.59 1357.66 2460.36 1357.25C2459.13 1356.84 2457.82 1356.72 2456.54 1356.9H2408.89C2402.24 1356.9 2399.43 1359.71 2399.43 1366.36V1475.66L2274.72 1363.91C2265.27 1355.5 2260.01 1352 2255.46 1352ZM2524.5 1356.9C2517.84 1356.9 2515.04 1359.71 2515.04 1366.36V1592.66C2515.04 1599.32 2517.84 1602.12 2524.5 1602.12H2571.79C2578.8 1602.12 2581.6 1599.32 2581.6 1592.66V1366.36C2581.6 1359.71 2578.8 1356.9 2571.79 1356.9H2524.5ZM2673.73 1417.51C2677.93 1417.51 2679.33 1418.91 2679.33 1423.11V1592.66C2679.33 1599.32 2682.14 1602.12 2688.79 1602.12H2736.44C2743.09 1602.12 2745.89 1599.32 2745.89 1592.66V1423.11C2745.89 1418.91 2747.3 1417.51 2751.5 1417.51H2804.4C2811.05 1417.51 2813.86 1414.71 2813.86 1408.05V1366.36C2813.86 1359.71 2811.05 1356.9 2804.4 1356.9H2620.83C2619.55 1356.72 2618.24 1356.84 2617.01 1357.25C2615.77 1357.66 2614.65 1358.35 2613.74 1359.27C2612.82 1360.18 2612.13 1361.3 2611.72 1362.54C2611.31 1363.77 2611.19 1365.08 2611.37 1366.36V1408.05C2611.19 1409.34 2611.31 1410.65 2611.72 1411.88C2612.13 1413.11 2612.82 1414.23 2613.74 1415.15C2614.65 1416.06 2615.77 1416.76 2617.01 1417.17C2618.24 1417.58 2619.55 1417.69 2620.83 1417.51H2673.73ZM2833.47 1367.41L2921.05 1513.49V1592.66C2921.05 1599.32 2923.85 1602.12 2930.51 1602.12H2978.15C2984.81 1602.12 2987.61 1599.32 2987.61 1592.66V1511.74L3073.79 1367.41C3075.03 1365.8 3075.77 1363.85 3075.89 1361.81C3075.89 1358.66 3073.09 1356.9 3068.53 1356.9H3017.74C3014.14 1356.3 3010.44 1356.98 3007.3 1358.84C3004.15 1360.7 3001.77 1363.61 3000.57 1367.06L2954.68 1449.04L2908.79 1367.06C2907.59 1363.61 2905.21 1360.7 2902.07 1358.84C2898.92 1356.98 2895.22 1356.3 2891.62 1356.9H2839.08C2833.82 1356.9 2831.37 1358.66 2831.37 1361.81C2831.49 1363.85 2832.22 1365.8 2833.47 1367.41Z" fill="black"/>
<path d="M1237.27 1772.55C1225.17 1762.67 1209.98 1757.33 1194.36 1757.49C1167.03 1757.49 1147.59 1772.03 1147.59 1796.72C1147.59 1818.27 1160.55 1828.08 1186.12 1834.21C1203.11 1838.23 1208.19 1840.69 1208.19 1846.99C1208.19 1853.3 1202.06 1856.98 1190.85 1856.98C1179.98 1856.71 1169.48 1852.97 1160.9 1846.29C1159.98 1845.44 1158.82 1844.89 1157.57 1844.72C1156.35 1844.72 1155.12 1845.59 1154.07 1847.34L1144.96 1861.88C1144.14 1863.01 1143.66 1864.34 1143.56 1865.73C1143.68 1866.56 1143.98 1867.34 1144.43 1868.04C1144.88 1868.73 1145.48 1869.32 1146.19 1869.76C1158.96 1879.64 1174.71 1884.88 1190.85 1884.65C1220.28 1884.65 1239.72 1869.76 1239.72 1845.07C1239.72 1824.4 1226.93 1814.06 1199.79 1807.41C1184.37 1803.73 1179.12 1801.45 1179.12 1794.97C1179.12 1789.19 1184.9 1785.16 1194.18 1785.16C1204.38 1785.45 1214.18 1789.15 1222.03 1795.67C1222.98 1796.44 1224.14 1796.93 1225.36 1797.07C1226.58 1797.07 1227.64 1796.2 1228.69 1794.62L1238.14 1779.56C1238.93 1778.56 1239.37 1777.33 1239.37 1776.05C1239.32 1775.35 1239.11 1774.66 1238.74 1774.05C1238.38 1773.44 1237.87 1772.93 1237.27 1772.55ZM1346.74 1787.79C1350.07 1787.79 1351.3 1786.21 1351.3 1783.24V1764.32C1351.3 1760.99 1350.07 1759.76 1346.74 1759.76H1255.66C1252.68 1759.76 1251.11 1760.99 1251.11 1764.32V1783.24C1251.03 1783.85 1251.09 1784.48 1251.3 1785.07C1251.5 1785.65 1251.83 1786.19 1252.27 1786.63C1252.71 1787.06 1253.24 1787.4 1253.83 1787.6C1254.42 1787.8 1255.04 1787.87 1255.66 1787.79H1283.34C1285.26 1787.79 1285.96 1788.49 1285.96 1790.42V1877.82C1285.89 1878.44 1285.95 1879.06 1286.15 1879.65C1286.35 1880.24 1286.69 1880.77 1287.13 1881.21C1287.57 1881.65 1288.1 1881.98 1288.69 1882.18C1289.27 1882.39 1289.9 1882.45 1290.52 1882.37H1311.89C1315.21 1882.37 1316.44 1880.8 1316.44 1877.82V1790.42C1316.44 1788.49 1317.14 1787.79 1319.07 1787.79H1346.74ZM1392.81 1882.37C1396.14 1882.37 1397.54 1881.15 1397.54 1877.82V1789.02C1397.54 1786.91 1398.06 1786.39 1400.16 1786.39H1411.02C1426.61 1786.39 1434.67 1791.99 1434.67 1803.9C1434.67 1815.29 1425.21 1821.77 1411.72 1823.35C1409.45 1823.7 1408.22 1824.4 1408.22 1825.62C1408.37 1826.62 1408.73 1827.58 1409.27 1828.43L1437.3 1877.12C1437.99 1878.9 1439.27 1880.39 1440.93 1881.35C1442.58 1882.31 1444.52 1882.67 1446.41 1882.37H1469.18C1472.15 1882.37 1473.56 1881.5 1473.56 1879.92C1473.48 1878.77 1473.06 1877.67 1472.33 1876.77L1445.53 1832.98C1451.85 1830.4 1457.21 1825.94 1460.91 1820.21C1464.61 1814.47 1466.45 1807.74 1466.2 1800.93C1466.2 1772.9 1448.33 1759.76 1411.72 1759.76H1371.61C1368.64 1759.76 1367.06 1760.99 1367.06 1764.32V1877.82C1366.98 1878.44 1367.05 1879.06 1367.25 1879.65C1367.45 1880.24 1367.78 1880.77 1368.22 1881.21C1368.66 1881.65 1369.2 1881.98 1369.78 1882.18C1370.37 1882.39 1371 1882.45 1371.61 1882.37H1392.81ZM1540.99 1884.65C1548.49 1885.44 1556.08 1884.56 1563.2 1882.09C1570.33 1879.62 1576.82 1875.6 1582.22 1870.34C1587.62 1865.07 1591.8 1858.68 1594.45 1851.62C1597.1 1844.56 1598.17 1837 1597.57 1829.48V1764.32C1597.57 1760.99 1596.16 1759.76 1592.84 1759.76H1571.64C1568.66 1759.76 1567.09 1760.99 1567.09 1764.32V1827.37C1567.09 1846.29 1558.16 1856.63 1542.04 1856.63C1525.93 1856.63 1517.17 1846.29 1517.17 1827.37V1764.32C1517.17 1760.99 1515.77 1759.76 1512.44 1759.76H1491.25C1488.27 1759.76 1486.69 1760.99 1486.69 1764.32V1829.83C1485.88 1837.18 1486.73 1844.62 1489.16 1851.6C1491.6 1858.58 1495.56 1864.94 1500.76 1870.19C1505.97 1875.45 1512.28 1879.47 1519.24 1881.97C1526.2 1884.47 1533.63 1885.39 1540.99 1884.65ZM1712.29 1846.29C1703.86 1852.96 1693.44 1856.6 1682.69 1856.63C1678.04 1856.75 1673.41 1855.91 1669.09 1854.17C1664.77 1852.43 1660.85 1849.82 1657.59 1846.5C1654.32 1843.18 1651.77 1839.23 1650.09 1834.88C1648.41 1830.54 1647.64 1825.9 1647.84 1821.24C1647.58 1816.56 1648.3 1811.87 1649.95 1807.48C1651.6 1803.09 1654.14 1799.08 1657.42 1795.72C1660.69 1792.36 1664.63 1789.72 1668.98 1787.96C1673.33 1786.21 1678 1785.37 1682.69 1785.51C1693.28 1785.68 1703.53 1789.24 1711.94 1795.67C1712.94 1796.48 1714.16 1796.97 1715.45 1797.07C1716.15 1797.02 1716.83 1796.78 1717.41 1796.38C1718 1795.98 1718.47 1795.43 1718.77 1794.8L1728.93 1780.43C1729.66 1779.54 1730.09 1778.43 1730.16 1777.28C1730.06 1776.61 1729.83 1775.97 1729.46 1775.39C1729.1 1774.82 1728.62 1774.33 1728.06 1773.95C1715.42 1763.28 1699.4 1757.45 1682.87 1757.49C1674.2 1757.05 1665.54 1758.4 1657.42 1761.45C1649.3 1764.49 1641.89 1769.18 1635.65 1775.2C1629.41 1781.23 1624.48 1788.47 1621.15 1796.48C1617.82 1804.49 1616.17 1813.1 1616.31 1821.77C1616.23 1830.24 1617.89 1838.64 1621.17 1846.45C1624.44 1854.26 1629.28 1861.33 1635.38 1867.21C1641.47 1873.09 1648.7 1877.67 1656.63 1880.67C1664.55 1883.67 1673 1885.02 1681.47 1884.65C1698.22 1884.74 1714.48 1878.91 1727.36 1868.19C1728.72 1867.23 1729.66 1865.79 1729.98 1864.16C1729.93 1863.08 1729.56 1862.05 1728.93 1861.18L1718.95 1846.82C1717.72 1845.42 1717.02 1844.72 1715.8 1844.72C1714.5 1844.88 1713.28 1845.43 1712.29 1846.29ZM1837 1787.79C1840.33 1787.79 1841.56 1786.21 1841.56 1783.24V1764.32C1841.56 1760.99 1840.33 1759.76 1837 1759.76H1745.92C1742.95 1759.76 1741.37 1760.99 1741.37 1764.32V1783.24C1741.29 1783.85 1741.36 1784.48 1741.56 1785.07C1741.76 1785.65 1742.09 1786.19 1742.53 1786.63C1742.97 1787.06 1743.51 1787.4 1744.09 1787.6C1744.68 1787.8 1745.31 1787.87 1745.92 1787.79H1773.6C1775.52 1787.79 1776.23 1788.49 1776.23 1790.42V1877.82C1776.15 1878.44 1776.21 1879.06 1776.42 1879.65C1776.62 1880.24 1776.95 1880.77 1777.39 1881.21C1777.83 1881.65 1778.36 1881.98 1778.95 1882.18C1779.54 1882.39 1780.16 1882.45 1780.78 1882.37H1802.15C1805.48 1882.37 1806.7 1880.8 1806.7 1877.82V1790.42C1806.7 1788.49 1807.4 1787.79 1809.33 1787.79H1837ZM1910.75 1884.65C1918.25 1885.44 1925.83 1884.56 1932.96 1882.09C1940.08 1879.62 1946.58 1875.6 1951.98 1870.34C1957.38 1865.07 1961.55 1858.68 1964.2 1851.62C1966.86 1844.56 1967.92 1837 1967.32 1829.48V1764.32C1967.32 1760.99 1965.92 1759.76 1962.59 1759.76H1941.4C1938.42 1759.76 1936.84 1760.99 1936.84 1764.32V1827.37C1936.84 1846.29 1927.91 1856.63 1911.8 1856.63C1895.68 1856.63 1886.92 1846.29 1886.92 1827.37V1764.32C1886.92 1760.99 1885.52 1759.76 1882.19 1759.76H1861C1858.02 1759.76 1856.45 1760.99 1856.45 1764.32V1829.83C1855.64 1837.18 1856.48 1844.62 1858.92 1851.6C1861.35 1858.58 1865.31 1864.94 1870.52 1870.19C1875.72 1875.45 1882.04 1879.47 1889 1881.97C1895.96 1884.47 1903.39 1885.39 1910.75 1884.65ZM2018.47 1882.37C2021.79 1882.37 2023.2 1881.15 2023.2 1877.82V1789.02C2023.2 1786.91 2023.72 1786.39 2025.82 1786.39H2036.68C2052.27 1786.39 2060.33 1791.99 2060.33 1803.9C2060.33 1815.29 2050.87 1821.77 2037.38 1823.35C2035.11 1823.7 2033.88 1824.4 2033.88 1825.62C2034.03 1826.62 2034.39 1827.58 2034.93 1828.43L2062.96 1877.12C2063.65 1878.9 2064.93 1880.39 2066.58 1881.35C2068.24 1882.31 2070.17 1882.67 2072.06 1882.37H2094.83C2097.81 1882.37 2099.21 1881.5 2099.21 1879.92C2099.14 1878.77 2098.71 1877.67 2097.99 1876.77L2071.19 1832.98C2077.5 1830.4 2082.87 1825.94 2086.57 1820.21C2090.27 1814.47 2092.11 1807.74 2091.86 1800.93C2091.86 1772.9 2073.99 1759.76 2037.38 1759.76H1997.27C1994.29 1759.76 1992.72 1760.99 1992.72 1764.32V1877.82C1992.64 1878.44 1992.71 1879.06 1992.91 1879.65C1993.11 1880.24 1993.44 1880.77 1993.88 1881.21C1994.32 1881.65 1994.86 1881.98 1995.44 1882.18C1996.03 1882.39 1996.66 1882.45 1997.27 1882.37H2018.47ZM2196.25 1858.9C2196.25 1855.57 2194.85 1854.35 2191.52 1854.35H2146.33C2144.23 1854.35 2143.7 1853.65 2143.7 1851.72V1837.36C2143.7 1835.43 2144.23 1834.73 2146.33 1834.73H2185.57C2188.89 1834.73 2190.12 1833.15 2190.12 1830.18V1811.44C2190.12 1808.11 2188.89 1806.71 2185.57 1806.71H2146.33C2144.23 1806.71 2143.7 1806.18 2143.7 1804.08V1790.42C2143.7 1788.49 2144.23 1787.79 2146.33 1787.79H2191.35C2194.67 1787.79 2196.07 1786.56 2196.07 1783.24V1764.32C2196.15 1763.69 2196.07 1763.05 2195.86 1762.45C2195.64 1761.85 2195.29 1761.31 2194.83 1760.87C2194.38 1760.43 2193.82 1760.1 2193.22 1759.91C2192.61 1759.72 2191.97 1759.67 2191.35 1759.76H2117.78C2114.8 1759.76 2113.23 1760.99 2113.23 1764.32V1877.82C2113.15 1878.44 2113.21 1879.06 2113.42 1879.65C2113.62 1880.24 2113.95 1880.77 2114.39 1881.21C2114.83 1881.65 2115.36 1881.98 2115.95 1882.18C2116.54 1882.39 2117.16 1882.45 2117.78 1882.37H2191.52C2192.15 1882.47 2192.79 1882.42 2193.39 1882.23C2194 1882.03 2194.55 1881.71 2195.01 1881.26C2195.47 1880.82 2195.82 1880.28 2196.03 1879.69C2196.25 1879.09 2196.32 1878.45 2196.25 1877.82V1858.9ZM2300.64 1772.55C2288.54 1762.67 2273.36 1757.33 2257.73 1757.49C2230.41 1757.49 2210.96 1772.03 2210.96 1796.72C2210.96 1818.27 2223.92 1828.08 2249.5 1834.21C2266.49 1838.23 2271.57 1840.69 2271.57 1846.99C2271.57 1853.3 2265.44 1856.98 2254.23 1856.98C2243.36 1856.71 2232.86 1852.97 2224.27 1846.29C2223.35 1845.44 2222.19 1844.89 2220.95 1844.72C2219.72 1844.72 2218.49 1845.59 2217.44 1847.34L2208.34 1861.88C2207.52 1863.01 2207.03 1864.34 2206.93 1865.73C2207.05 1866.56 2207.35 1867.34 2207.8 1868.04C2208.26 1868.73 2208.86 1869.32 2209.56 1869.76C2222.34 1879.64 2238.08 1884.88 2254.23 1884.65C2283.65 1884.65 2303.1 1869.76 2303.1 1845.07C2303.1 1824.4 2290.31 1814.06 2263.16 1807.41C2247.75 1803.73 2242.49 1801.45 2242.49 1794.97C2242.49 1789.19 2248.27 1785.16 2257.55 1785.16C2267.75 1785.45 2277.56 1789.15 2285.4 1795.67C2286.36 1796.44 2287.51 1796.93 2288.73 1797.07C2289.96 1797.07 2291.01 1796.2 2292.06 1794.62L2301.52 1779.56C2302.31 1778.56 2302.74 1777.33 2302.74 1776.05C2302.7 1775.35 2302.48 1774.66 2302.11 1774.05C2301.75 1773.44 2301.24 1772.93 2300.64 1772.55Z" fill="black"/>
</g>
<defs>
<clipPath id="clip0_4_204">
<rect width="2663.78" height="532.65" fill="white" transform="translate(412.111 1352)"/>
</clipPath>
</defs>
</svg>
